<?xml version="1.0" standalone="no"?>
<!DOCTYPE svg PUBLIC "-//W3C//DTD SVG 20010904//EN"
 "http://www.w3.org/TR/2001/REC-SVG-20010904/DTD/svg10.dtd">
<svg version="1.0" xmlns="http://www.w3.org/2000/svg"
 width="512.000000pt" height="512.000000pt" viewBox="0 0 512.000000 512.000000"
 preserveAspectRatio="xMidYMid meet">
<metadata>
Created by potrace 1.11, written by Peter Selinger 2001-2013
</metadata>
<g transform="translate(0.000000,512.000000) scale(0.100000,-0.100000)"
fill="#000000" stroke="none">
<path d="M1160 3390 l0 -190 -195 0 -195 0 0 -260 0 -260 -60 0 -60 0 0 -60 0
-60 190 0 190 0 0 190 0 190 65 0 65 0 0 -255 0 -255 -130 0 -130 0 0 -320 0
-320 -125 0 -125 0 0 60 0 60 -65 0 -65 0 0 65 0 65 -65 0 -65 0 0 -190 0
-190 65 0 65 0 0 -65 0 -65 895 0 895 0 0 65 0 65 65 0 65 0 0 190 0 190 -65
0 -65 0 0 -65 0 -65 -65 0 -65 0 0 -60 0 -60 -125 0 -125 0 0 255 0 255 -65 0
-65 0 0 65 0 65 -65 0 -65 0 0 190 0 190 255 0 255 0 0 195 0 195 65 0 65 0 0
60 0 60 -190 0 -190 0 0 -125 0 -125 -130 0 -130 0 0 255 0 255 -255 0 -255 0
0 -190z m510 -1410 l0 -190 -255 0 -255 0 0 190 0 190 255 0 255 0 0 -190z"/>
<path d="M3460 3390 l0 -190 -130 0 -130 0 0 -260 0 -260 -60 0 -60 0 0 -60 0
-60 60 0 60 0 0 -325 0 -325 -60 0 -60 0 0 -125 0 -125 -65 0 -65 0 0 65 0 65
-65 0 -65 0 0 60 0 60 -65 0 -65 0 0 -125 0 -125 65 0 65 0 0 -65 0 -65 960 0
960 0 0 65 0 65 -190 0 -190 0 0 450 0 450 60 0 60 0 0 60 0 60 -60 0 -60 0 0
260 0 260 -195 0 -195 0 0 190 0 190 -255 0 -255 0 0 -190z m0 -1025 l0 -705
-65 0 -65 0 0 705 0 705 65 0 65 0 0 -705z m770 0 l0 -705 -130 0 -130 0 0
705 0 705 130 0 130 0 0 -705z m-390 -320 l0 -385 -125 0 -125 0 0 385 0 385
125 0 125 0 0 -385z"/>
</g>
</svg>
